<svg xmlns="http://www.w3.org/2000/svg" version="1.1" xmlns:xlink="http://www.w3.org/1999/xlink" xmlns:svgjs="http://svgjs.dev/svgjs" width="1920" height="1080" preserveAspectRatio="none" viewBox="0 0 1920 1080"><g mask="url(&quot;#SvgjsMask1458&quot;)" fill="none"><rect width="1920" height="1080" x="0" y="0" fill="url(&quot;#SvgjsLinearGradient1459&quot;)"></rect><path d="M0 0L506.19 0L0 268.19z" fill="rgba(255, 255, 255, .1)"></path><path d="M0 268.19L506.19 0L663.5 0L0 705.35z" fill="rgba(255, 255, 255, .075)"></path><path d="M0 705.35L663.5 0L732.0699999999999 0L0 886.3100000000001z" fill="rgba(255, 255, 255, .05)"></path><path d="M0 886.3100000000001L732.0699999999999 0L1550.4699999999998 0L0 1024.54z" fill="rgba(255, 255, 255, .025)"></path><path d="M1920 1080L1224.78 1080L1920 775.85z" fill="rgba(0, 0, 0, .1)"></path><path d="M1920 775.85L1224.78 1080L636.3299999999999 1080L1920 413.33000000000004z" fill="rgba(0, 0, 0, .075)"></path><path d="M1920 413.33000000000004L636.3299999999999 1080L269.49999999999994 1080L1920 188.53000000000003z" fill="rgba(0, 0, 0, .05)"></path><path d="M1920 188.52999999999997L269.5 1080L243.04 1080L1920 144.95z" fill="rgba(0, 0, 0, .025)"></path></g><defs><mask id="SvgjsMask1458"><rect width="1920" height="1080" fill="#ffffff"></rect></mask><linearGradient x1="50%" y1="0%" x2="50%" y2="100%" gradientUnits="userSpaceOnUse" id="SvgjsLinearGradient1459"><stop stop-color="rgba(184, 184, 184, 1)" offset="0"></stop><stop stop-color="rgba(82, 80, 80, 1)" offset="1"></stop><stop stop-color="rgba(75, 75, 75, 1)" offset="1"></stop></linearGradient></defs></svg>